P3
4 4 
255
157 193 223 1 42 143 61 233 59 98 40 67 
135 104 76 7 246 251 34 189 226 149 206 26 
44 63 70 119 103 20 57 198 219 100 213 249 
205 144 250 245 212 56 222 33 155 213 157 162 
